<?xml version="1.0" standalone="no"?>
<!DOCTYPE svg PUBLIC "-//W3C//DTD SVG 20010904//EN"
 "http://www.w3.org/TR/2001/REC-SVG-20010904/DTD/svg10.dtd">
<svg version="1.0" xmlns="http://www.w3.org/2000/svg"
 width="360.000000pt" height="360.000000pt" viewBox="0 0 360.000000 360.000000"
 preserveAspectRatio="xMidYMid meet">

<g transform="translate(0.000000,360.000000) scale(0.100000,-0.100000)"
fill="#000000" stroke="none">
<path d="M1465 2645 c-9 -33 -27 -67 -43 -82 -21 -20 -193 -108 -342 -176 -19
-9 -28 -16 -20 -16 8 -1 94 38 190 87 l176 87 0 -55 c1 -62 64 -270 89 -290
21 -17 38 -2 81 76 l35 62 25 -25 c30 -30 32 -27 -79 -133 l-78 -75 -29 -145
c-16 -80 -41 -178 -55 -219 -14 -41 -25 -82 -25 -92 0 -38 35 -121 67 -158
l33 -40 -20 -112 c-11 -62 -20 -121 -20 -131 0 -17 16 -18 296 -18 l297 0 -7
47 c-8 60 -57 251 -94 368 -27 86 -28 95 -21 215 4 69 8 176 8 237 1 111 1
113 25 119 34 8 59 38 52 61 -4 13 3 28 22 47 l29 27 18 -28 c29 -45 67 -83
86 -83 40 0 110 144 117 242 3 38 6 68 8 68 1 0 23 -9 49 -20 56 -24 217 -72
223 -66 2 2 -36 16 -85 31 -48 15 -114 38 -146 52 l-57 26 -21 71 c-29 99 -29
99 -34 94 -7 -6 32 -137 48 -161 12 -18 11 -32 -5 -101 -21 -91 -72 -204 -95
-213 -21 -8 -46 23 -113 143 -30 51 -70 108 -89 126 -22 20 -27 23 -15 8 12
-14 34 -47 49 -73 l28 -49 -35 -35 c-40 -39 -58 -37 -58 7 0 18 -8 34 -21 44
-25 17 -59 65 -59 82 0 7 54 58 120 114 66 56 120 104 120 107 0 7 -9 -1 -120
-93 -47 -39 -93 -81 -103 -92 l-19 -21 -37 37 c-47 47 -206 179 -196 162 11
-17 77 -77 144 -128 37 -29 63 -59 78 -90 11 -26 35 -61 52 -79 37 -38 41 -58
9 -48 -13 4 -55 9 -95 12 l-72 5 -16 41 -16 40 43 45 c38 40 39 43 11 23 -30
-20 -102 -121 -167 -233 -43 -74 -50 -76 -75 -18 -12 28 -36 93 -53 145 l-31
93 32 97 c18 54 30 100 27 102 -2 2 -12 -21 -21 -52z m348 -342 c34 -9 73 -24
87 -33 14 -10 42 -20 63 -24 41 -8 49 -29 18 -46 -27 -14 -71 -12 -101 5 -14
8 -40 14 -58 15 -18 0 -41 4 -50 8 -13 7 -25 -1 -52 -31 l-35 -40 30 7 c90 20
105 19 131 -5 14 -13 37 -43 51 -67 23 -39 25 -49 19 -125 -3 -45 -6 -109 -6
-142 0 -77 -12 -97 -29 -49 -11 30 -11 38 3 53 22 24 20 38 -3 17 -17 -16 -19
-16 -25 6 -10 41 -6 64 14 83 32 29 14 30 -20 1 -17 -14 -44 -26 -58 -27 -25
-1 -25 -2 -5 -7 l22 -7 -24 -27 c-12 -15 -25 -24 -28 -22 -3 3 -8 0 -13 -7 -5
-8 -3 -10 6 -4 21 13 4 -66 -30 -141 -41 -92 -156 -254 -180 -254 -28 0 -73
42 -102 97 -40 74 -43 107 -14 195 14 43 39 143 55 223 l30 146 108 108 c59
59 114 108 121 109 7 1 40 -6 75 -15z m105 -195 l-3 -23 -13 23 c-11 19 -11
26 0 39 12 15 13 15 16 0 2 -9 2 -27 0 -39z"/>
<path d="M1474 1055 c-23 -24 -25 -28 -12 -47 8 -12 33 -28 56 -36 47 -15 52
-26 21 -42 -14 -8 -29 -8 -49 -1 -21 7 -32 7 -36 -1 -18 -28 93 -40 120 -12
35 34 9 73 -57 88 -20 5 -27 12 -25 24 3 13 13 17 46 15 46 -2 60 20 20 31
-41 10 -58 6 -84 -19z"/>
<path d="M1910 1073 c-62 -24 -81 -103 -35 -148 26 -27 80 -34 116 -14 31 16
14 27 -34 22 -32 -4 -48 -1 -60 12 -23 22 -21 61 3 85 23 23 42 25 72 9 25
-13 46 2 25 19 -17 15 -67 23 -87 15z"/>
<path d="M1120 985 c0 -69 3 -85 15 -85 9 0 15 9 15 25 0 22 4 25 33 25 48 0
77 24 77 65 0 43 -20 55 -89 55 l-51 0 0 -85z m103 44 c17 -28 1 -49 -38 -49
-33 0 -35 2 -35 36 0 34 1 35 31 32 18 -2 37 -10 42 -19z"/>
<path d="M1300 985 l0 -85 65 0 c51 0 65 3 65 15 0 11 -12 15 -51 15 -47 0
-50 2 -47 23 2 18 9 22 41 22 23 0 37 4 37 12 0 8 -14 13 -40 13 -36 0 -40 3
-40 25 0 23 3 25 50 25 28 0 50 5 50 10 0 6 -28 10 -65 10 l-65 0 0 -85z"/>
<path d="M1690 985 l0 -85 65 0 c51 0 65 3 65 15 0 11 -12 15 -50 15 -43 0
-50 3 -50 20 0 12 7 21 18 22 9 0 22 2 27 3 6 2 18 3 28 4 35 2 16 20 -25 23
-35 2 -43 7 -43 23 0 17 8 20 48 23 71 5 57 22 -18 22 l-65 0 0 -85z"/>
<path d="M2040 985 l0 -85 65 0 c51 0 65 3 65 15 0 11 -12 15 -51 15 -47 0
-50 2 -47 23 2 18 9 22 42 22 55 0 59 23 4 27 -36 2 -44 7 -46 26 -3 20 0 22
47 22 28 0 51 5 51 10 0 6 -28 10 -65 10 l-65 0 0 -85z"/>
<path d="M2210 985 l0 -85 60 0 c47 0 60 3 60 15 0 11 -12 15 -45 15 l-45 0 0
70 c0 56 -3 70 -15 70 -12 0 -15 -16 -15 -85z"/>
<path d="M2360 985 l0 -85 60 0 c47 0 60 3 60 15 0 11 -12 15 -45 15 l-45 0 0
70 c0 56 -3 70 -15 70 -12 0 -15 -16 -15 -85z"/>
</g>
</svg>
