<?xml version="1.0" standalone="no"?>
<!DOCTYPE svg PUBLIC "-//W3C//DTD SVG 20010904//EN"
 "http://www.w3.org/TR/2001/REC-SVG-20010904/DTD/svg10.dtd">
<svg version="1.0" xmlns="http://www.w3.org/2000/svg"
 width="1080.000000pt" height="1080.000000pt" viewBox="0 0 1080.000000 1080.000000"
 preserveAspectRatio="xMidYMid meet">

<g transform="translate(0.000000,1080.000000) scale(0.100000,-0.100000)"
fill="#000000" stroke="none">
<path d="M0 5400 l0 -5400 5400 0 5400 0 0 3335 0 3335 -131 263 -132 262 -23
220 c-70 675 -48 555 -191 1020 -35 116 -66 217 -69 227 -3 9 -93 85 -200 168
l-196 152 -181 78 c-100 43 -445 191 -767 330 -322 139 -630 271 -685 295 -55
24 -252 108 -438 189 -186 80 -373 155 -415 166 -42 12 -126 35 -187 52 -60
16 -133 36 -161 44 l-52 14 -115 202 c-68 121 -131 247 -156 312 -22 60 -41
113 -41 118 0 5 78 7 172 6 l173 -3 46 -125 c32 -87 81 -185 159 -322 l113
-196 46 -12 c58 -14 206 -54 336 -91 55 -15 148 -49 205 -75 58 -25 134 -58
170 -73 91 -39 705 -303 1070 -461 168 -73 449 -194 625 -270 176 -76 334
-144 350 -151 29 -13 394 -293 406 -311 3 -5 49 -153 102 -331 l97 -322 34
-315 34 -315 1 1693 1 1692 -2155 0 c-1185 0 -2155 -2 -2155 -5 0 -3 9 -37 20
-77 93 -343 80 -698 -41 -1128 -55 -192 -64 -231 -95 -390 -60 -316 -78 -425
-119 -715 -19 -135 -28 -169 -45 -172 -23 -4 -98 104 -222 322 -218 380 -289
486 -411 604 -80 78 -114 101 -147 101 -43 0 -298 -110 -410 -176 -33 -20 -41
-22 -30 -9 14 17 13 18 -2 12 -26 -9 -22 10 5 24 38 20 97 82 97 104 0 25 -57
58 -100 58 -16 0 -46 -12 -67 -26 -56 -39 -255 -242 -310 -317 -42 -58 -66
-94 -159 -241 -55 -89 -124 -221 -124 -239 0 -14 7 -20 23 -20 27 0 91 75 108
128 16 51 27 62 60 62 41 0 109 -44 109 -70 0 -5 4 -10 8 -10 10 0 29 -42 67
-145 14 -38 33 -77 42 -87 9 -10 13 -18 10 -18 -15 0 51 -96 74 -107 30 -16
119 -17 119 -2 0 7 55 8 178 4 206 -7 232 -10 289 -36 23 -10 46 -19 52 -19
20 0 59 61 90 141 18 46 37 92 42 101 5 10 9 24 9 31 0 15 62 75 99 96 39 21
81 31 99 22 10 -5 34 -17 55 -27 21 -11 61 -41 89 -69 61 -60 212 -286 226
-338 11 -38 7 -77 -17 -192 -6 -27 -29 -153 -52 -280 -22 -126 -51 -284 -64
-350 -13 -66 -26 -145 -30 -175 -4 -30 -11 -71 -16 -90 -5 -19 -22 -111 -39
-205 -41 -230 -84 -423 -98 -437 -19 -19 -34 40 -28 112 17 209 26 568 21 870
-6 400 -8 420 -40 420 -32 0 -34 -15 -41 -403 -5 -236 -11 -342 -19 -354 -9
-12 -9 -30 1 -77 16 -74 18 -119 4 -111 -5 3 -10 -2 -10 -12 -1 -36 -95 195
-131 322 -30 101 -50 259 -56 420 -5 147 3 215 26 223 10 3 12 0 8 -12 -4 -9
-2 -16 3 -16 6 0 10 9 10 19 0 10 11 39 25 62 31 54 31 79 3 137 -24 46 -94
115 -109 106 -5 -3 -6 2 -3 10 11 28 -3 17 -30 -24 -16 -25 -36 -42 -54 -46
-15 -3 -43 -12 -62 -19 -36 -14 -94 -26 -142 -29 -16 0 -28 -5 -28 -9 0 -5 -4
-6 -9 -2 -5 3 -12 1 -16 -5 -10 -16 -26 -12 -23 6 4 25 -22 29 -29 5 -3 -12
-12 -21 -20 -21 -8 0 -29 -6 -46 -14 -18 -7 -48 -20 -67 -27 -19 -7 -37 -15
-40 -19 -18 -20 -132 -65 -167 -66 -44 -1 -90 -24 -99 -49 -9 -23 28 -64 68
-76 29 -9 58 -9 120 -1 46 7 153 12 238 12 152 0 156 -1 205 -29 59 -34 79
-55 99 -103 14 -32 14 -37 1 -48 -12 -10 -15 -9 -15 4 0 13 -3 14 -19 4 -15
-9 -28 -9 -59 0 -48 15 -89 15 -97 2 -3 -5 -31 -10 -61 -10 -30 0 -54 -4 -54
-9 0 -5 -15 -13 -32 -16 -18 -4 -36 -12 -40 -18 -7 -11 -39 -12 -171 -6 -74 4
-78 3 -83 -18 -5 -19 -13 -23 -47 -23 -22 0 -55 -5 -72 -11 -58 -21 -90 -2
-179 105 -42 50 -77 66 -102 45 -13 -11 -20 -8 -42 17 -15 16 -28 38 -30 49
-12 75 -55 162 -87 177 -14 6 -32 22 -41 35 -15 23 -14 26 11 49 14 13 32 24
39 24 24 0 66 55 66 87 0 43 -81 519 -120 703 -14 67 -38 209 -45 261 l-6 45
73 -1 c40 -1 81 -5 91 -9 11 -6 17 -4 17 5 0 11 3 11 10 -1 9 -13 13 -11 30
10 11 14 20 29 20 33 0 5 7 16 16 25 12 12 14 25 9 56 -4 23 -8 51 -8 64 -1
12 -8 22 -16 22 -9 0 -12 10 -9 35 2 19 1 35 -3 35 -4 0 -5 19 -2 42 7 48 31
130 33 108 1 -13 2 -13 13 0 27 34 130 96 150 91 5 -1 6 3 2 9 -3 5 1 10 10
10 9 0 13 5 9 11 -3 6 -1 15 6 19 9 5 -17 37 -84 103 -93 93 -110 117 -83 117
7 0 4 7 -7 15 -11 8 -16 15 -10 15 19 -1 405 -305 495 -391 96 -92 152 -119
245 -119 28 0 75 -5 105 -10 101 -19 168 16 394 209 49 42 115 96 146 121 115
92 295 248 332 289 58 65 215 306 259 398 50 107 73 224 64 326 l-8 77 -3219
0 -3219 0 0 -5400z m4960 2000 c0 -5 26 -21 58 -36 54 -26 63 -28 193 -26 101
2 146 -1 179 -13 59 -21 100 -61 100 -97 0 -15 -3 -28 -6 -28 -3 0 -23 14 -45
32 l-39 32 -68 -14 c-37 -7 -71 -16 -77 -20 -5 -4 -27 -13 -47 -19 -21 -7 -38
-17 -38 -22 0 -5 -11 -9 -24 -9 -13 0 -49 -12 -80 -26 -46 -21 -65 -24 -108
-19 -59 6 -104 -10 -102 -38 1 -9 -2 -17 -7 -17 -5 0 -9 9 -9 20 0 11 -7 20
-15 20 -9 0 -12 -6 -9 -15 10 -26 -36 -18 -108 17 -37 18 -67 39 -68 47 0 7
-6 11 -14 8 -11 -4 -11 1 -2 26 25 74 97 132 174 142 28 4 49 11 46 16 -3 5 7
9 23 9 33 0 47 9 56 32 6 17 37 15 37 -2z m446 -541 c12 -11 24 -31 26 -44 5
-21 3 -22 -30 -13 -45 12 -76 4 -106 -28 -20 -23 -29 -26 -60 -20 -20 4 -36
11 -36 16 0 6 -27 10 -60 10 -45 0 -62 4 -66 15 -4 8 -13 15 -22 15 -13 0 -13
2 3 13 10 8 15 19 12 24 -9 15 193 43 263 37 36 -3 62 -12 76 -25z m-2342
-209 c-4 -19 6 -58 31 -121 21 -52 53 -136 71 -188 18 -52 53 -124 77 -160 25
-36 76 -119 115 -183 78 -130 233 -363 318 -478 106 -145 197 -220 267 -220
16 0 36 11 52 27 16 18 25 22 25 13 0 -10 4 -8 14 6 14 18 15 18 21 -9 7 -25
3 -33 -29 -59 -59 -49 -49 -75 62 -162 58 -46 71 -64 55 -79 -16 -17 -213 149
-213 180 0 7 -5 13 -11 13 -33 0 -250 207 -292 278 -10 17 -26 32 -35 31 -22
-1 -61 -17 -44 -18 32 -2 -3 -21 -38 -21 -27 0 -47 8 -69 27 -17 15 -31 31
-31 35 0 4 -15 31 -34 60 -18 29 -51 87 -73 128 -33 63 -130 234 -163 290
-117 194 -211 451 -196 534 9 49 74 117 104 110 17 -5 20 -11 16 -34z m2335
-1473 c22 -11 97 -104 161 -199 14 -21 32 -38 40 -39 10 0 11 -2 3 -6 -7 -2
-13 -9 -13 -14 0 -4 6 -6 14 -3 9 3 17 -3 21 -15 3 -11 11 -18 18 -15 8 3 13
-9 15 -33 2 -36 -27 -83 -52 -83 -5 0 -30 21 -54 48 -24 26 -91 95 -148 153
-111 113 -127 139 -112 180 15 44 51 53 107 26z m3889 -57 c29 -25 52 -62 82
-127 l42 -91 -32 -103 c-63 -205 -74 -237 -166 -472 -52 -131 -94 -240 -94
-242 0 -2 31 -29 69 -60 54 -44 88 -62 158 -85 48 -15 172 -56 274 -89 167
-55 194 -61 270 -61 46 0 90 -4 96 -8 7 -4 15 -21 19 -38 l6 -29 -114 -28
c-94 -23 -135 -27 -243 -27 l-130 0 -286 94 c-273 89 -290 96 -357 147 -39 30
-71 58 -71 62 -1 7 103 276 150 391 12 27 32 83 45 125 49 153 73 229 119 376
26 83 53 168 60 190 7 22 18 59 24 83 13 48 14 47 79 -8z m-3363 -350 c3 -6
17 -7 31 -4 13 3 24 2 24 -4 0 -5 17 -12 38 -15 20 -3 69 -14 107 -25 163 -48
214 -61 290 -76 124 -24 154 -35 224 -85 25 -18 30 -26 19 -33 -9 -7 -7 -8 9
-5 25 5 41 -22 21 -35 -19 -11 -36 -10 -18 2 12 8 9 10 -10 7 -14 -2 -33 -8
-44 -12 -13 -6 -21 -3 -28 8 -5 10 -15 17 -21 17 -7 0 -30 9 -50 19 -31 16
-52 19 -115 15 -76 -5 -152 -21 -162 -35 -3 -4 -42 -10 -87 -14 -81 -7 -82 -7
-88 17 -5 19 -17 27 -56 37 -27 7 -49 17 -49 22 0 5 -11 14 -25 19 -14 5 -25
14 -25 20 0 5 11 10 25 10 14 0 25 4 25 10 0 6 23 7 60 3 33 -3 60 -3 60 1 0
15 -56 55 -77 56 -12 0 -27 9 -33 20 -14 25 -52 28 -43 3 6 -15 5 -16 -9 -3
-14 13 -14 16 1 26 13 10 11 11 -13 7 -20 -4 -27 -2 -22 6 4 6 15 11 24 11 15
0 15 2 2 10 -9 6 -10 10 -3 10 6 0 15 -5 18 -10z m-85 -60 c0 -5 -2 -10 -4
-10 -3 0 -8 5 -11 10 -3 6 -1 10 4 10 6 0 11 -4 11 -10z m99 -54 c9 -11 7 -15
-8 -19 -14 -3 -17 0 -14 14 6 23 7 23 22 5z m-59 -40 c0 -3 -4 -8 -10 -11 -5
-3 -10 -1 -10 4 0 6 5 11 10 11 6 0 10 -2 10 -4z m-253 -41 c113 -45 134 -57
129 -71 -3 -8 1 -14 8 -14 8 0 16 5 18 12 3 7 10 8 17 3 10 -5 5 -11 -18 -21
-26 -11 -37 -11 -66 1 -19 8 -50 15 -70 15 -20 0 -55 8 -78 19 -23 10 -72 22
-109 26 -55 5 -66 9 -61 22 5 13 1 15 -20 11 -15 -3 -27 -1 -27 3 0 5 -7 9
-15 9 -8 0 -15 4 -15 10 0 6 45 8 120 6 100 -4 130 -9 187 -31z m375 -105 c2
-7 14 -7 37 0 37 10 192 4 201 -8 3 -5 62 -9 131 -10 107 -1 132 -4 167 -22
31 -16 39 -25 35 -41 -3 -11 -8 -17 -11 -15 -3 3 -19 -3 -36 -13 -43 -26 -102
-33 -120 -15 -8 8 -38 20 -67 27 -36 10 -55 20 -60 34 -9 25 -39 39 -39 18 0
-10 -11 -15 -35 -15 -27 0 -44 -8 -70 -35 -19 -19 -35 -43 -35 -54 0 -25 -19
-31 -95 -31 -85 0 -132 23 -141 69 -4 21 -2 36 5 40 7 4 9 15 5 25 -9 23 11
36 58 36 20 0 40 5 43 10 8 13 22 13 27 0z m351 -117 c-7 -2 -19 -2 -25 0 -7
3 -2 5 12 5 14 0 19 -2 13 -5z m-1353 -182 c19 -5 82 -14 140 -20 70 -7 130
-20 181 -39 56 -21 91 -28 131 -27 53 2 56 1 54 -21 0 -15 -9 -27 -21 -31 -33
-11 -149 -9 -168 2 -13 7 -20 6 -27 -5 -8 -12 -10 -12 -10 5 -1 19 -1 19 -14
2 -13 -17 -18 -17 -97 -1 -46 9 -102 25 -123 35 -22 11 -45 19 -52 19 -6 0
-25 7 -40 15 -16 8 -48 15 -71 15 -58 0 -92 15 -90 38 0 11 6 18 13 15 7 -2
15 1 19 7 8 13 116 7 175 -9z m2533 -234 c61 -60 83 -123 91 -267 4 -63 14
-169 22 -235 27 -205 7 -651 -28 -629 -5 3 -15 -10 -23 -28 -8 -19 -14 -25
-15 -15 0 9 -7 17 -16 17 -10 0 -14 6 -10 18 25 87 31 200 29 562 -2 212 -5
404 -8 428 -6 53 -75 152 -107 152 -6 0 -5 7 3 17 12 15 12 16 -3 10 -10 -3
-18 -2 -18 3 0 24 42 7 83 -33z m-2418 -315 c55 -16 115 -32 133 -36 40 -7 75
-36 45 -36 -15 0 -16 -2 -3 -10 11 -7 5 -10 -25 -11 -22 -1 -42 -1 -45 -1 -3
0 -46 3 -97 6 -51 3 -108 12 -127 20 -19 8 -78 20 -131 26 -52 6 -108 18 -123
26 -18 9 -21 14 -10 14 12 0 15 5 11 17 -5 13 -2 15 11 10 11 -5 15 -3 10 5
-5 8 27 9 122 5 101 -5 151 -12 229 -35z m-3136 -849 l-12 -228 -76 -118 c-42
-65 -83 -122 -91 -127 -51 -27 -721 -290 -740 -290 -38 0 -16 12 138 75 l147
60 115 171 c63 95 163 243 221 330 69 102 142 196 204 262 54 56 100 101 102
98 3 -2 -1 -107 -8 -233z m6865 -925 c15 -84 38 -209 51 -278 13 -69 26 -144
30 -168 4 -23 77 -203 162 -400 85 -196 157 -367 160 -380 l5 -22 -192 2 -193
3 -124 288 -125 289 -70 389 c-39 214 -68 393 -64 397 8 7 202 28 287 31 l45
1 28 -152z"/>
<path d="M4756 7121 c-3 -5 3 -11 14 -14 13 -3 20 0 20 9 0 15 -26 19 -34 5z"/>
<path d="M5620 4820 c0 -11 5 -20 10 -20 6 0 10 9 10 20 0 11 -4 20 -10 20 -5
0 -10 -9 -10 -20z"/>
<path d="M6092 4638 c2 -18 10 -22 43 -23 22 -1 51 -5 64 -9 14 -5 21 -4 18 1
-3 5 -25 16 -49 23 -24 7 -47 17 -52 22 -17 14 -27 9 -24 -14z"/>
<path d="M6240 4594 c0 -8 5 -12 10 -9 6 4 8 11 5 16 -9 14 -15 11 -15 -7z"/>
<path d="M6156 4585 c4 -8 10 -15 15 -15 5 0 9 7 9 15 0 8 -7 15 -15 15 -9 0
-12 -6 -9 -15z"/>
<path d="M5700 8200 c0 -5 -10 -10 -22 -10 l-23 0 25 -21 c14 -11 19 -18 13
-14 -20 10 -15 -10 7 -30 39 -35 80 -111 80 -147 0 -50 11 -99 20 -93 5 3 11
-4 15 -15 6 -18 8 -19 22 -5 12 12 14 29 9 73 -16 160 -34 213 -83 252 -27 21
-63 27 -63 10z"/>
<path d="M4825 7560 c3 -5 10 -10 16 -10 5 0 9 5 9 10 0 6 -7 10 -16 10 -8 0
-12 -4 -9 -10z"/>
</g>
</svg>
